<?xml version="1.0" standalone="no"?>
<!DOCTYPE svg PUBLIC "-//W3C//DTD SVG 20010904//EN"
 "http://www.w3.org/TR/2001/REC-SVG-20010904/DTD/svg10.dtd">
<svg version="1.0" xmlns="http://www.w3.org/2000/svg"
 width="300.000000pt" height="225.000000pt" viewBox="0 0 300.000000 225.000000"
 preserveAspectRatio="xMidYMid meet">
<metadata>
Created by potrace 1.10, written by Peter Selinger 2001-2011
</metadata>
<g transform="translate(0.000000,225.000000) scale(0.100000,-0.100000)"
fill="#000000" stroke="none">
<path d="M1410 1888 c-105 -193 -200 -403 -200 -445 0 -8 12 -13 35 -13 19 0
35 -3 35 -7 0 -4 -21 -55 -46 -114 -40 -92 -53 -112 -89 -137 -64 -45 -115
-153 -122 -259 -9 -130 32 -232 107 -263 24 -10 60 -10 175 -1 l145 12 83 -44
c45 -25 88 -42 96 -40 9 4 11 1 6 -7 -5 -9 -4 -11 4 -6 6 4 9 11 6 16 -11 19
-154 90 -168 84 -34 -13 -36 135 -3 230 11 32 35 73 52 92 28 29 38 33 95 37
l64 3 -71 2 c-65 2 -74 0 -98 -25 -15 -15 -39 -52 -53 -82 -23 -48 -27 -70
-27 -153 -1 -54 -3 -98 -6 -98 -3 0 -54 -4 -115 -9 -113 -9 -191 -3 -189 14 2
15 -32 55 -46 55 -7 0 -10 7 -6 15 9 24 -5 75 -20 75 -8 0 -14 5 -14 10 0 6 4
10 9 10 5 0 11 16 13 35 3 24 0 35 -9 35 -7 0 -13 5 -13 10 0 6 6 10 14 10 8
0 17 15 21 37 4 20 15 53 25 74 15 28 16 39 7 49 -10 10 -9 12 4 7 24 -8 62
34 53 59 -6 15 -4 17 6 7 10 -9 20 -8 44 4 30 16 30 16 9 30 -21 14 -21 14 27
121 37 82 53 108 69 110 11 2 21 2 21 0 0 -3 -22 -54 -49 -114 -49 -109 -52
-134 -13 -134 8 0 58 -28 111 -61 131 -84 148 -94 136 -82 -22 23 -225 153
-240 153 -9 0 -18 6 -21 13 -7 21 82 211 105 222 11 5 29 34 41 64 27 71 19
77 -10 6 l-22 -55 -79 0 c-44 0 -79 2 -79 4 0 3 14 43 31 89 l30 85 76 -29
c43 -16 77 -27 78 -26 30 55 118 298 110 305 -8 9 -25 -20 -46 -80 -25 -68
-76 -175 -88 -182 -12 -8 -76 17 -86 34 -7 11 7 41 109 233 l46 89 45 -44 c36
-36 55 -71 109 -201 37 -87 76 -177 88 -200 11 -23 20 -44 20 -47 -6 -22 31
-75 46 -66 5 3 9 0 10 -7 0 -7 25 -86 55 -177 57 -171 57 -180 10 -180 -16 0
-21 -4 -17 -15 5 -11 -1 -15 -18 -15 -14 0 -35 -11 -47 -24 l-23 -24 24 -5
c18 -3 17 -5 -8 -6 -19 0 -34 -8 -38 -17 -9 -23 -8 -24 14 -24 11 0 20 -4 20
-10 0 -5 -13 -10 -29 -10 -17 0 -31 -6 -35 -16 -10 -26 -7 -34 14 -34 11 0 20
-5 20 -11 0 -7 -10 -9 -24 -7 -16 3 -27 0 -30 -9 -10 -24 -7 -30 17 -38 21 -8
21 -8 -5 -12 -22 -3 -28 -10 -28 -29 0 -14 6 -24 14 -24 8 0 18 -5 22 -12 5
-8 0 -9 -14 -6 -19 5 -22 2 -22 -22 0 -20 6 -30 23 -35 19 -6 19 -8 5 -12 -24
-6 -23 -38 2 -63 22 -22 27 -35 8 -24 -6 4 1 -9 17 -30 34 -45 72 -66 120 -66
47 0 83 20 128 69 129 143 141 404 22 506 -34 29 -38 41 -80 205 -49 192 -50
173 10 214 17 12 18 17 7 35 -16 27 -210 391 -237 446 -27 53 -54 65 -152 65
l-82 0 -51 -92z m196 66 c13 -3 24 -10 24 -14 0 -5 8 -11 19 -15 11 -3 37 -44
65 -103 26 -53 62 -124 81 -157 21 -38 30 -64 24 -71 -5 -6 -6 -14 -2 -17 3
-4 -10 -7 -30 -7 -19 0 -42 -3 -50 -6 -11 -4 -27 24 -62 108 -25 62 -64 152
-86 199 -44 96 -46 104 -23 95 9 -3 27 -9 40 -12z m299 -454 l25 -49 -43 -26
c-39 -22 -48 -24 -77 -14 -25 9 -37 23 -56 66 -13 29 -24 55 -24 58 0 6 42 12
97 14 l53 1 25 -50z m-15 -233 c17 -67 37 -143 44 -170 14 -47 5 -74 -12 -40
-8 14 -93 271 -110 329 -2 7 6 10 21 7 23 -4 28 -17 57 -126z m93 -259 c33
-17 45 -37 68 -112 17 -52 20 -83 16 -130 -11 -122 -74 -245 -150 -293 -34
-22 -46 -24 -75 -17 -48 12 -88 65 -108 144 -37 145 34 341 145 400 42 22 73
25 104 8z m-428 -384 c36 -20 65 -38 65 -40 0 -5 -67 28 -113 56 -54 33 -22
22 48 -16z"/>
<path d="M1320 1136 c0 -5 106 -82 155 -111 48 -30 16 -2 -60 52 -84 59 -95
66 -95 59z"/>
<path d="M1210 1126 c0 -7 240 -149 245 -145 4 4 -229 149 -240 149 -3 0 -5
-2 -5 -4z"/>
<path d="M1185 1053 c56 -31 255 -122 255 -118 0 7 -260 135 -273 135 -7 -1 2
-8 18 -17z"/>
<path d="M1635 1010 l-60 -7 65 0 c36 0 79 3 95 7 l30 8 -35 -1 c-19 0 -62 -3
-95 -7z"/>
<path d="M1131 986 c8 -8 272 -96 276 -92 2 2 -55 24 -128 50 -119 42 -160 53
-148 42z"/>
<path d="M1583 953 c26 -2 67 -2 90 0 23 2 2 3 -48 3 -49 0 -68 -1 -42 -3z"/>
<path d="M1101 906 c7 -7 290 -68 295 -64 2 3 -60 19 -139 37 -137 30 -165 35
-156 27z"/>
<path d="M1555 854 c33 -7 69 -13 80 -12 30 1 -75 26 -110 26 -19 0 -7 -5 30
-14z"/>
<path d="M1110 821 c8 -5 51 -12 95 -15 55 -3 67 -3 40 3 -66 14 -151 21 -135
12z"/>
<path d="M1554 799 c38 -11 74 -18 80 -16 11 4 -115 37 -136 36 -7 0 18 -9 56
-20z"/>
<path d="M1291 796 c2 -2 29 -6 59 -9 34 -3 47 -2 35 3 -19 8 -103 14 -94 6z"/>
<path d="M1500 759 c47 -20 143 -48 134 -40 -11 10 -133 51 -148 50 -6 0 0 -5
14 -10z"/>
<path d="M1203 733 c37 -2 97 -2 135 0 37 2 6 3 -68 3 -74 0 -105 -1 -67 -3z"/>
<path d="M1480 717 c0 -7 151 -69 156 -64 2 2 -26 16 -64 31 -94 39 -92 39
-92 33z"/>
<path d="M943 343 c-35 -2 -63 -8 -63 -13 0 -15 192 -24 545 -24 345 0 545 9
545 23 0 15 -186 21 -574 19 -215 -1 -419 -3 -453 -5z"/>
</g>
</svg>
